<?xml version="1.0" encoding="UTF-8" standalone="no"?>
<!-- Created with Inkscape (http://www.inkscape.org/) -->

<svg
   width="56mm"
   height="56mm"
   viewBox="0 0 56 56"
   version="1.1"
   id="svg1"
   xml:space="preserve"
   inkscape:version="1.4 (86a8ad7, 2024-10-11)"
   sodipodi:docname="иконка_красн.svg"
   inkscape:export-filename="иконка_красн_dark.png"
   inkscape:export-xdpi="96"
   inkscape:export-ydpi="96"
   xmlns:inkscape="http://www.inkscape.org/namespaces/inkscape"
   xmlns:sodipodi="http://sodipodi.sourceforge.net/DTD/sodipodi-0.dtd"
   xmlns="http://www.w3.org/2000/svg"
   xmlns:svg="http://www.w3.org/2000/svg"><sodipodi:namedview
     id="namedview1"
     pagecolor="#ffffff"
     bordercolor="#111111"
     borderopacity="1"
     inkscape:showpageshadow="0"
     inkscape:pageopacity="0"
     inkscape:pagecheckerboard="1"
     inkscape:deskcolor="#d1d1d1"
     inkscape:document-units="mm"
     inkscape:zoom="0.56569164"
     inkscape:cx="202.40709"
     inkscape:cy="0.88387377"
     inkscape:window-width="1600"
     inkscape:window-height="837"
     inkscape:window-x="-8"
     inkscape:window-y="-8"
     inkscape:window-maximized="1"
     inkscape:current-layer="layer1"><inkscape:page
       x="0"
       y="0"
       width="56"
       height="56"
       id="page2"
       margin="0"
       bleed="0" /></sodipodi:namedview><defs
     id="defs1" /><g
     inkscape:label="Слой 1"
     inkscape:groupmode="layer"
     id="layer1"
     transform="translate(-7.110599,-7.2759617)"><circle
       style="display:inline;opacity:1;fill:#b29579;fill-opacity:1;stroke-width:0.691251;stroke-linecap:round"
       id="path1"
       cx="35.139267"
       cy="35.341908"
       r="27.712206" /><rect
       style="display:inline;fill:#9c8167;fill-opacity:1;stroke:none;stroke-width:0.64;stroke-linecap:round;stroke-linejoin:round;stroke-dasharray:none;stroke-opacity:1"
       id="rect1-18"
       width="7.9086261"
       height="8.0739851"
       x="23.087683"
       y="-53.71624"
       ry="1.6708624"
       transform="scale(1,-1)" /><path
       style="fill:#9c8167;fill-opacity:1;stroke-width:0.665001;stroke-linecap:round"
       d="m 36.90983,21.824487 c 0,0 1.702275,1.563792 2.14728,6.594031 -0.748774,0.865236 4.992766,-5.415108 7.991305,-1.078299 2.537151,3.669498 -6.664958,8.301966 -6.664958,8.301966 l -3e-6,6.664961 6.78189,-1e-6 1e-6,-3.507871 4.443307,-4.092519 c 0,0 2.960638,-2.450286 2.863197,-6.308947 -0.09744,-3.858662 -2.262027,-9.690433 -10.346663,-9.242628 -5.898725,0.326728 -7.215356,2.669307 -7.215356,2.669307 z"
       id="path2-5-8"
       sodipodi:nodetypes="ccsccccczsc" /><path
       style="display:inline;fill:#9c8167;fill-opacity:1;stroke-width:0.665001;stroke-linecap:round"
       d="m 18.587439,23.433009 3.274014,4.443306 c 0,0 5.420359,-5.506099 8.418898,-1.16929 2.537151,3.669498 -6.664958,8.769683 -6.664958,8.769683 l -3e-6,6.664961 6.78189,-10e-7 1e-6,-3.507871 4.443307,-4.092519 c 0,0 2.960638,-2.450286 2.863197,-6.308947 -0.09744,-3.858662 -2.262027,-9.690433 -10.346663,-9.242628 -5.898725,0.326728 -8.769683,4.443306 -8.769683,4.443306 z"
       id="path2-1"
       sodipodi:nodetypes="ccsccccczsc" /><rect
       style="opacity:1;fill:#ffffff;fill-opacity:1;stroke:none;stroke-width:0.64;stroke-linecap:round;stroke-linejoin:round;stroke-dasharray:none;stroke-opacity:1"
       id="rect1"
       width="7.9086261"
       height="8.0739851"
       x="21.914522"
       y="-52.445366"
       ry="1.6708624"
       transform="scale(1,-1)" /><rect
       style="fill:#9c8167;fill-opacity:1;stroke:none;stroke-width:0.64;stroke-linecap:round;stroke-linejoin:round;stroke-dasharray:none;stroke-opacity:1"
       id="rect1-18-8"
       width="7.9086261"
       height="8.0739851"
       x="40.362522"
       y="-53.79406"
       ry="1.6708624"
       transform="scale(1,-1)" /><rect
       style="fill:#ffffff;fill-opacity:1;stroke:none;stroke-width:0.64;stroke-linecap:round;stroke-linejoin:round;stroke-dasharray:none;stroke-opacity:1"
       id="rect1-7"
       width="7.9086261"
       height="8.0739851"
       x="39.423222"
       y="-52.40625"
       ry="1.6708624"
       transform="scale(1,-1)" /><path
       style="display:inline;opacity:1;fill:#ffffff;fill-opacity:1;stroke-width:0.665001;stroke-linecap:round"
       d="m 17.20068,22.265905 3.274014,4.443306 c 0,0 5.420359,-5.506099 8.418898,-1.16929 2.537151,3.669498 -6.664958,8.769683 -6.664958,8.769683 l -3e-6,6.664961 6.78189,-10e-7 1e-6,-3.507871 4.443307,-4.092519 c 0,0 2.960638,-2.450286 2.863197,-6.308947 -0.09744,-3.858662 -2.262027,-9.690433 -10.346663,-9.242628 -5.898725,0.326728 -8.769683,4.443306 -8.769683,4.443306 z"
       id="path2"
       sodipodi:nodetypes="ccsccccczsc" /><path
       style="opacity:1;fill:#ffffff;fill-opacity:1;stroke-width:0.665001;stroke-linecap:round"
       d="m 36.050085,20.407665 c 0,0 2.053062,1.213005 2.498067,6.243244 -0.748774,0.865236 4.641979,-5.064321 7.640518,-0.727512 2.537151,3.669498 -6.664958,8.301966 -6.664958,8.301966 l -3e-6,6.664961 6.78189,-10e-7 10e-7,-3.507871 4.443307,-4.092519 c 0,0 2.960638,-2.450286 2.863197,-6.308947 -0.09744,-3.858662 -2.262027,-9.690433 -10.346663,-9.242628 -5.898725,0.326728 -7.215356,2.669307 -7.215356,2.669307 z"
       id="path2-5"
       sodipodi:nodetypes="ccsccccczsc" /></g></svg>
