<?xml version="1.0" encoding="UTF-8" standalone="no"?>
<!-- Created with Inkscape (http://www.inkscape.org/) -->

<svg
   width="57mm"
   height="57mm"
   viewBox="0 0 57 57"
   version="1.1"
   id="svg1"
   xml:space="preserve"
   sodipodi:docname="ава_конь.svg"
   inkscape:version="1.4 (86a8ad7, 2024-10-11)"
   xmlns:inkscape="http://www.inkscape.org/namespaces/inkscape"
   xmlns:sodipodi="http://sodipodi.sourceforge.net/DTD/sodipodi-0.dtd"
   xmlns="http://www.w3.org/2000/svg"
   xmlns:svg="http://www.w3.org/2000/svg"><sodipodi:namedview
     id="namedview1"
     pagecolor="#080808"
     bordercolor="#111111"
     borderopacity="1"
     inkscape:showpageshadow="0"
     inkscape:pageopacity="0"
     inkscape:pagecheckerboard="1"
     inkscape:deskcolor="#d1d1d1"
     inkscape:document-units="mm"
     showgrid="true"
     inkscape:zoom="1.1313833"
     inkscape:cx="87.061566"
     inkscape:cy="223.17813"
     inkscape:window-width="1600"
     inkscape:window-height="837"
     inkscape:window-x="-8"
     inkscape:window-y="-8"
     inkscape:window-maximized="1"
     inkscape:current-layer="svg1"><inkscape:page
       x="0"
       y="0"
       width="57"
       height="57"
       id="page2"
       margin="0"
       bleed="0" /></sodipodi:namedview><defs
     id="defs1" /><g
     inkscape:label="Слой 1"
     inkscape:groupmode="layer"
     id="layer1"
     style="display:inline;fill:#000000;fill-opacity:1"
     transform="translate(-6.0803148,-6.3141731)"><rect
       style="display:inline;fill:#ffffff;fill-opacity:1;stroke-width:0.640001;stroke-linecap:round;stroke-linejoin:round"
       id="rect1"
       width="56.554066"
       height="56.554066"
       x="6.4207759"
       y="6.7162452" /><path
       id="rect2"
       d="m 25.594588,45.753608 h 20.108113 a 1.2319526,1.2319526 0 0 1 1.231952,1.231952 v 2.745022 a 1.3146341,1.3146341 0 0 1 -1.314634,1.314634 H 25.635928 a 1.3559747,1.3559747 0 0 1 -1.355974,-1.355975 v -2.620999 a 1.314634,1.314634 0 0 1 1.314634,-1.314634 z"
       style="display:inline;fill:#000000;fill-opacity:1;stroke-width:0.640001;stroke-linecap:round;stroke-linejoin:round" /><path
       id="rect2-1"
       d="m 24.318267,51.591448 h 22.71336 a 1.3915668,0.67372405 0 0 1 1.391567,0.673724 v 1.501184 a 1.4849607,0.7189405 0 0 1 -1.484962,0.71894 H 24.364964 a 1.5316575,0.74154864 0 0 1 -1.531658,-0.741549 v -1.433359 a 1.4849606,0.71894044 0 0 1 1.484961,-0.71894 z"
       style="fill:#000000;fill-opacity:1;stroke-width:0.503014;stroke-linecap:round;stroke-linejoin:round" /><path
       id="rect2-1-6"
       d="m 23.344897,55.006216 h 25.02506 a 1.5331964,0.67372405 0 0 1 1.533196,0.673724 v 1.501184 a 1.6360957,0.7189405 0 0 1 -1.636096,0.71894 h -24.87071 a 1.6875451,0.74154864 0 0 1 -1.687545,-0.741549 v -1.433359 a 1.6360955,0.71894044 0 0 1 1.636095,-0.71894 z"
       style="fill:#000000;fill-opacity:1;stroke-width:0.527991;stroke-linecap:round;stroke-linejoin:round" /><path
       style="fill:#000000;fill-opacity:1;stroke-width:0.640001;stroke-linecap:round;stroke-linejoin:round"
       d="m 29.875395,44.842324 c -2.462252,-3.852948 -4.501773,-5.963388 -4.501773,-5.963388 0,0 9.898388,-5.76553 10.815945,-11.166732 5.096379,0.07945 5.686301,-4.907615 7.053542,-10.853734 4.619979,2.988319 6.752436,11.821444 6.217913,22.89744 -5.387082,0.493909 -6.781888,5.086417 -6.781888,5.086417 0,0 -2.858022,0.169677 -12.803739,-3e-6 z"
       id="path2"
       sodipodi:nodetypes="ccccccc" /><path
       style="color:#000000;font-style:normal;font-variant:normal;font-weight:normal;font-stretch:normal;font-size:medium;line-height:normal;font-family:sans-serif;font-variant-ligatures:normal;font-variant-position:normal;font-variant-caps:normal;font-variant-numeric:normal;font-variant-alternates:normal;font-variant-east-asian:normal;font-feature-settings:normal;font-variation-settings:normal;text-indent:0;text-align:start;text-decoration-line:none;text-decoration-style:solid;text-decoration-color:#000000;letter-spacing:normal;word-spacing:normal;text-transform:none;writing-mode:lr-tb;direction:ltr;text-orientation:mixed;dominant-baseline:auto;baseline-shift:baseline;text-anchor:start;white-space:normal;shape-padding:0;shape-margin:0;inline-size:0;clip-rule:nonzero;display:inline;overflow:visible;visibility:visible;isolation:auto;mix-blend-mode:normal;color-interpolation:sRGB;color-interpolation-filters:linearRGB;solid-color:#000000;solid-opacity:1;vector-effect:none;fill:#000000;fill-opacity:1;fill-rule:nonzero;stroke:none;stroke-linecap:round;stroke-linejoin:round;stroke-miterlimit:4;stroke-dasharray:none;stroke-dashoffset:0;stroke-opacity:1;-inkscape-stroke:none;color-rendering:auto;image-rendering:auto;shape-rendering:auto;text-rendering:auto;enable-background:accumulate;stop-color:#000000;stop-opacity:1"
       d="m 33.701477,16.134475 c 0,0 4.237338,5.565724 5.833193,8.866109 -8.41961,3.222411 -12.821544,5.760384 -14.17139,6.595497 -0.255818,0.158268 -0.703381,0.295244 -1.005114,0.297278 l -0.989997,0.0067 c -0.364044,0.0025 -0.89741,-0.170491 -1.174203,-0.406983 -0.678387,-0.579613 -1.937486,-1.781206 -3.230541,-3.66519 -0.203701,-0.296792 -0.134006,-0.727504 0.146931,-0.95394 5.116073,-4.123555 11.490515,-8.702951 14.591121,-10.739445 z"
       id="path3"
       sodipodi:nodetypes="cccccc" /><ellipse
       style="fill:#000000;fill-opacity:1;stroke-width:0.765505;stroke-linecap:round;stroke-linejoin:round"
       id="path1"
       cx="31.307869"
       cy="27.667057"
       rx="4.0513878"
       ry="2.8318374" /><path
       style="fill:#000000;fill-opacity:1;stroke-width:0.640001;stroke-linecap:round;stroke-linejoin:round"
       d="M 29.509553,32.214534 Z"
       id="path4" /><path
       style="fill:#000000;fill-opacity:1;stroke-width:0.640001;stroke-linecap:round;stroke-linejoin:round"
       d="m 27.401178,30.395543 c 0,0 1.535241,-0.269345 2.625133,-0.02067 1.089893,0.248673 -1.21955,-1.426253 -1.21955,-1.426253 z"
       id="path5"
       sodipodi:nodetypes="czcc" /><path
       style="fill:#000000;fill-opacity:1;stroke-width:0.678505;stroke-linecap:round;stroke-linejoin:round"
       d="m 32.676635,16.809589 c 0.840324,-1.663252 0.488439,-3.18801 0.371715,-4.839214 -0.01582,-0.223763 0.157161,-0.371349 0.371873,-0.302953 2.859075,0.910758 4.908475,5.199732 4.908475,5.199732 0,0 -6.560729,1.740955 -5.652063,-0.05757 z"
       id="path6"
       sodipodi:nodetypes="zccz" /><path
       style="fill:#000000;fill-opacity:1;stroke-width:0.640001;stroke-linecap:round;stroke-linejoin:round"
       d="m 34.995147,28.810358 c 0,0 0.732372,-1.521012 1.232269,-0.957266 0.499897,0.563746 10.417853,-1.777651 10.417853,-1.777651 0,0 -0.808386,-5.915504 -3.268584,-9.104468 -0.04904,-0.06357 -0.152892,-0.133342 -0.231263,-0.154789 -3.168624,-0.867144 -8.98626,0.145965 -8.98626,0.145965 z"
       id="path7"
       sodipodi:nodetypes="czcccc" /></g></svg>
