<?xml version="1.0" encoding="UTF-8" standalone="no"?>
<!-- Created with Inkscape (http://www.inkscape.org/) -->

<svg
   width="43mm"
   height="35mm"
   viewBox="0 0 43 35"
   version="1.1"
   id="svg1"
   xml:space="preserve"
   inkscape:version="1.4 (86a8ad7, 2024-10-11)"
   sodipodi:docname="глаза.svg"
   inkscape:export-filename="пен.svg"
   inkscape:export-xdpi="96"
   inkscape:export-ydpi="96"
   xmlns:inkscape="http://www.inkscape.org/namespaces/inkscape"
   xmlns:sodipodi="http://sodipodi.sourceforge.net/DTD/sodipodi-0.dtd"
   xmlns="http://www.w3.org/2000/svg"
   xmlns:svg="http://www.w3.org/2000/svg"><sodipodi:namedview
     id="namedview1"
     pagecolor="#ffffff"
     bordercolor="#111111"
     borderopacity="1"
     inkscape:showpageshadow="0"
     inkscape:pageopacity="0"
     inkscape:pagecheckerboard="1"
     inkscape:deskcolor="#d1d1d1"
     inkscape:document-units="mm"
     inkscape:zoom="1.6000176"
     inkscape:cx="92.498984"
     inkscape:cy="163.4357"
     inkscape:window-width="1600"
     inkscape:window-height="837"
     inkscape:window-x="-8"
     inkscape:window-y="-8"
     inkscape:window-maximized="1"
     inkscape:current-layer="layer1"><inkscape:page
       x="0"
       y="0"
       width="43"
       height="35"
       id="page2"
       margin="0"
       bleed="0" /></sodipodi:namedview><defs
     id="defs1" /><g
     inkscape:label="Слой 1"
     inkscape:groupmode="layer"
     id="layer1"
     style="display:inline"><path
       style="display:none;fill:#000000;stroke:#000000;stroke-opacity:1"
       d="m 42.378851,43.60688 c -4.31653,-4.30772 -7.91916,-7.83222 -8.00586,-7.83222 -0.0867,0 -0.93952,0.52432 -1.89517,1.16515 -0.95564,0.64083 -2.42992,1.42585 -3.27618,1.74448 -0.84625,0.31863 -2.37208,0.75888 -3.39073,0.97833 -1.28903,0.2777 -2.62729,0.35455 -4.40203,0.25278 -1.744497,-0.10004 -3.240575,-0.37448 -4.73636,-0.86884 C 15.469996,38.64912 13.640912,37.76995 12.607889,37.09285 11.574866,36.41575 9.9557586,35.03658 9.009873,34.02802 8.063988,33.01947 6.8977516,31.45507 6.4182376,30.55158 5.9387236,29.6481 5.3168316,28.24165 5.0362556,27.42614 c -0.280576,-0.81551 -0.641199,-2.4676 -0.801383,-3.67131 -0.2048401,-1.53928 -0.2104541,-2.7694 -0.01892,-4.14635 0.149777,-1.07678 0.512623,-2.73168 0.806326,-3.67757 0.293703,-0.94588 0.983639,-2.49369 1.533191,-3.43958 0.549552,-0.94589 1.8921584,-2.6127597 2.983568,-3.7041694 1.0914094,-1.09141 2.7582874,-2.4340203 3.7041734,-2.9835703 0.945885,-0.54955 2.493698,-1.24039 3.439583,-1.53519 0.945886,-0.2948001 2.650017,-0.6534901 3.786959,-0.7970801 1.415822,-0.1788099 2.726372,-0.1708199 4.159282,0.0254 1.15067,0.15755 2.75354,0.51401 3.56193,0.7921401 0.80839,0.27813 2.20901,0.89802 3.1125,1.37753 0.90348,0.47952 2.46788,1.6457503 3.47644,2.5916403 1.00856,0.94588 2.38773,2.5649894 3.06483,3.5980094 0.6771,1.03303 1.55627,2.86211 1.9537,4.06463 0.49437,1.49579 0.76881,2.99187 0.86884,4.73636 0.10177,1.77474 0.0249,3.11301 -0.25278,4.40204 -0.21945,1.01865 -0.6597,2.54447 -0.97833,3.39073 -0.31863,0.84625 -1.10364,2.32053 -1.74447,3.27618 -0.64083,0.95564 -1.16515,1.80847 -1.16515,1.89517 0,0.0867 3.52449,3.68933 7.83221,8.00585 6.94922,6.96343 7.8109,7.9186 7.64318,8.47244 -0.10397,0.34332 -0.26495,0.70013 -0.35773,0.79291 -0.0928,0.0928 -0.4496,0.25377 -0.79292,0.35774 -0.55384,0.16772 -1.50901,-0.69396 -8.47243,-7.64318 z m -16.07696,-6.92871 c 0.89413,-0.23068 2.45913,-0.85454 3.47777,-1.38636 1.12726,-0.58852 2.5262,-1.64105 3.57459,-2.68944 1.04838,-1.04838 2.10092,-2.44732 2.68944,-3.57458 0.53182,-1.01865 1.15568,-2.58364 1.38635,-3.47778 0.23068,-0.89413 0.41942,-2.62528 0.41942,-3.84701 0,-1.22173 -0.18117,-2.93095 -0.4026,-3.79827 -0.22143,-0.86732 -0.77639,-2.35085 -1.23325,-3.29673 -0.5853,-1.21182 -1.4628,-2.34834 -2.97084,-3.84781 -1.50961,-1.5010194 -2.66395,-2.3817094 -3.91786,-2.9890694 -0.97772,-0.47358 -2.6446,-1.04585 -3.70417,-1.2716903 -1.29767,-0.2766 -2.66057,-0.36561 -4.17545,-0.27268 -1.407238,0.0863 -2.904469,0.3762503 -4.000387,0.7746503 -0.963285,0.35018 -2.332504,0.9762 -3.042708,1.39114 -0.710205,0.41495 -1.946125,1.3785 -2.746489,2.1412294 -0.800365,0.76272 -1.8573044,2.05199 -2.3487554,2.86503 -0.4914496,0.81304 -1.1853326,2.28092 -1.5419616,3.26195 -0.4098694,1.1275 -0.6991684,2.61108 -0.7863684,4.03266 -0.09292,1.51489 -0.0039,2.87778 0.27268,4.17546 0.225848,1.05957 0.7981104,2.72644 1.2716944,3.70416 0.6073626,1.25391 1.48805,2.40825 2.989074,3.91787 1.497334,1.5059 2.637705,2.38674 3.847803,2.9721 0.945886,0.45755 2.374636,1.00468 3.175001,1.21584 0.800364,0.21115 2.509584,0.39175 3.798267,0.40133 1.33738,0.01 3.04083,-0.16261 3.96875,-0.402 z"
       id="path1" /><path
       style="display:none;fill:#000000;stroke:#000000;stroke-width:0.3;stroke-dasharray:none;stroke-opacity:1"
       d="m 26.207217,50.78886 c -0.2594,-0.259401 -0.471637,-0.840158 -0.471637,-1.290574 0,-0.450415 0.162069,-0.981009 0.36016,-1.179096 0.265472,-0.265475 2.946443,-0.360162 10.19763,-0.360162 h 9.837471 l 0.465093,0.709823 c 0.343269,0.523897 0.390412,0.906249 0.179977,1.459734 -0.156814,0.412454 -0.509099,0.835864 -0.782857,0.940915 -0.273756,0.105048 -4.731442,0.191001 -9.905968,0.191001 -8.152757,0 -9.471168,-0.06295 -9.879869,-0.471641 z M 4.862636,49.323273 C 4.4574551,48.91809 4.1259431,48.276465 4.1259431,47.897435 c 0,-0.379026 0.476689,-2.916882 1.0593068,-5.639679 C 5.7678677,39.534962 6.5112632,36.756274 6.8372415,36.082893 7.2475702,35.235265 11.873853,30.571412 21.873361,20.924665 29.817249,13.261018 37.113756,6.2858723 38.087822,5.4243404 39.125764,4.5063157 40.352281,3.7250532 41.050895,3.536936 c 0.858046,-0.2310479 1.549445,-0.2269379 2.46761,0.014657 1.03467,0.2722643 1.85226,0.9308358 4.329143,3.4871307 1.679467,1.7333125 3.266423,3.6000243 3.526573,4.1482463 0.260149,0.548225 0.473,1.461594 0.473,2.029707 0,0.568116 -0.303888,1.588969 -0.675303,2.268565 -0.4187,0.766112 -6.548619,6.891618 -16.132191,16.120578 -8.50129,8.186725 -16.009508,15.215608 -16.684927,15.619739 -0.840374,0.50283 -2.869757,1.066183 -6.428661,1.784589 -2.8603431,0.577391 -5.4540164,1.049802 -5.763717,1.049802 -0.3097028,0 -0.8946053,-0.331509 -1.299786,-0.73669 z m 7.730207,-3.892715 c 1.933081,-0.401434 3.741381,-0.85674 4.018447,-1.011792 0.277066,-0.155054 6.233828,-5.792705 13.237248,-12.528114 L 42.58203,19.644455 39.056867,16.110086 35.531704,12.575713 33.559945,14.415843 C 32.475477,15.427912 26.828846,20.844383 21.011874,26.452447 15.1949,32.060509 10.229483,36.96343 9.9776148,37.347831 9.7257445,37.732232 9.1831054,39.63547 8.7717467,41.57725 8.3603882,43.519029 7.9537261,45.415077 7.868054,45.790691 7.7346433,46.375579 7.810332,46.451146 8.3952165,46.317029 8.7708296,46.230909 10.659761,45.831987 12.592843,45.430558 Z M 48.545748,13.227591 c 0,-0.316768 -1.2271,-1.88341 -2.726887,-3.4814216 -2.167748,-2.3097186 -2.89628,-2.9054752 -3.553016,-2.9054752 -0.581901,0 -1.350688,0.4814312 -2.600489,1.6284797 l -1.77436,1.6284811 3.601607,3.633445 3.601605,3.633443 1.725769,-1.780507 c 0.949174,-0.979275 1.725771,-2.039678 1.725771,-2.356445 z"
       id="path2" /><path
       style="fill:#a79278;stroke:#a79278;stroke-width:0.74;stroke-dasharray:none;stroke-opacity:1;fill-opacity:1"
       d="M 9.5368527,34.42109 C 9.1432644,34.32309 8.3501324,33.991827 7.7743384,33.684932 7.1985454,33.378037 6.2960204,32.749545 5.7687294,32.288283 5.2414374,31.827022 4.4474964,30.938559 4.0044154,30.313923 3.5613334,29.689285 2.9086118,28.59758 2.5539232,27.88791 2.1992346,27.178239 1.6902161,25.903793 1.4227712,25.055806 1.1553261,24.20782 0.80150041,22.756222 0.63649181,21.830033 0.45057585,20.78649 0.33647613,19.129559 0.33647613,17.473267 c 0,-1.656291 0.11409972,-3.313222 0.30001568,-4.356765 0.1650086,-0.926189 0.51763029,-2.377787 0.78360369,-3.2257741 0.2659734,-0.8479861 0.847019,-2.2468551 1.2912124,-3.1085971 0.4441932,-0.861743 1.1813365,-2.041203 1.6380945,-2.621023 0.456759,-0.57982 1.266744,-1.401105 1.799965,-1.825077 0.533222,-0.423972 1.508659,-1.027904 2.167639,-1.34207096 1.1148375,-0.5314961 1.3391243,-0.5712131 3.2257746,-0.5712131 1.9666,0 2.071672,0.02103 3.490953,0.69866306 1.145791,0.547056 1.76577,1.008011 2.857115,2.124262 0.766584,0.78408 1.706422,1.962755 2.088529,2.619277 0.382107,0.656521 0.950054,1.85471 1.262103,2.662639 0.312048,0.80793 0.716445,2.0521572 0.898659,2.7649502 0.182212,0.712792 0.42278,2.042522 0.534595,2.954955 0.111813,0.912434 0.203532,2.366209 0.203818,3.23061 2.85e-4,0.864402 -0.08658,2.274527 -0.193031,3.133609 -0.106452,0.859083 -0.349178,2.191626 -0.539389,2.961208 -0.190213,0.769581 -0.59923,2.055282 -0.908928,2.857113 -0.309697,0.801832 -0.87572,1.995031 -1.257827,2.651554 -0.382107,0.656521 -1.321945,1.835196 -2.088529,2.619276 -1.093582,1.118539 -1.707592,1.574623 -2.850688,2.117476 -1.307215,0.620795 -1.628001,0.696453 -3.122294,0.736398 -0.915968,0.02449 -1.9874243,-0.03565 -2.3810143,-0.133647 z m 3.8397353,-3.056194 c 0.586651,-0.199891 1.298672,-0.691385 2.108963,-1.455772 0.748259,-0.70587 1.52307,-1.680279 1.995258,-2.509255 0.424578,-0.745393 1.018992,-2.101796 1.320919,-3.014229 0.301928,-0.912433 0.62646,-2.094449 0.721183,-2.626701 0.09473,-0.532254 0.152204,-0.967733 0.127734,-0.967733 -0.02446,0 -0.363008,0.133086 -0.752309,0.295746 -0.475335,0.198608 -1.058203,0.2704 -1.7746,0.218581 -0.80495,-0.05823 -1.258827,-0.211996 -1.849229,-0.626507 -0.430347,-0.30214 -0.982907,-0.911987 -1.227912,-1.355217 -0.323867,-0.585899 -0.445464,-1.091032 -0.445464,-1.850542 0,-0.759509 0.121597,-1.264642 0.445464,-1.850541 0.245005,-0.44323 0.797565,-1.053077 1.227912,-1.355217 0.590402,-0.414511 1.044279,-0.568282 1.849229,-0.626507 0.716397,-0.05182 1.299265,0.01997 1.7746,0.218581 0.389301,0.16266 0.72784,0.295746 0.752309,0.295746 0.02446,0 -0.03301,-0.43548 -0.127734,-0.967733 -0.09473,-0.532252 -0.419255,-1.714269 -0.721183,-2.626701 C 18.499801,9.6484619 17.905387,8.2920588 17.480809,7.5466658 17.008621,6.7176898 16.23381,5.7432808 15.485551,5.0374108 14.67526,4.2730228 13.963239,3.7815298 13.376588,3.5816378 c -0.487116,-0.165976 -1.355331,-0.301776 -1.929367,-0.301776 -0.795853,0 -1.312272,0.134206 -2.1746576,0.565144 -0.73915,0.369358 -1.480303,0.951188 -2.13936,1.67947 -0.554622,0.612878 -1.336139,1.747949 -1.736704,2.522381 -0.400565,0.774431 -0.934675,2.0716462 -1.18691,2.8826982 -0.252236,0.811051 -0.567354,2.096753 -0.700264,2.857114 -0.1329093,0.760361 -0.2416523,2.41933 -0.2416523,3.686598 0,1.267268 0.108743,2.926238 0.2416523,3.686599 0.13291,0.760361 0.448028,2.046062 0.700264,2.857114 0.252235,0.811052 0.786345,2.108266 1.18691,2.882698 0.400565,0.774431 1.182082,1.909503 1.736704,2.522381 0.659057,0.728281 1.40021,1.310112 2.13936,1.67947 0.8623856,0.430938 1.3788046,0.565144 2.1746576,0.565144 0.574036,0 1.442251,-0.1358 1.929367,-0.301777 z M 28.77763,34.20839 c -0.658979,-0.232057 -1.589429,-0.651933 -2.067667,-0.933058 -0.478238,-0.281124 -1.284017,-0.932219 -1.790622,-1.446878 l -0.9211,-0.935743 0.556783,-1.102978 c 0.306229,-0.606639 0.637632,-1.315633 0.73645,-1.575543 l 0.179669,-0.472565 0.533673,0.841515 c 0.293519,0.462833 0.954358,1.174048 1.468529,1.580476 0.514172,0.406429 1.394358,0.910883 1.95597,1.121009 0.561613,0.210127 1.46097,0.382048 1.998572,0.382048 0.721932,0 1.273112,-0.147739 2.108414,-0.565144 0.739151,-0.369358 1.480304,-0.951189 2.139361,-1.67947 0.554622,-0.612878 1.336139,-1.74795 1.736704,-2.522381 0.400565,-0.774432 0.93612,-2.071646 1.190124,-2.882698 0.254004,-0.811052 0.520724,-1.868327 0.59271,-2.349502 l 0.130885,-0.874862 -0.660058,0.27579 c -0.363033,0.151685 -1.056728,0.273968 -1.541546,0.271742 -0.484818,-0.0022 -1.213282,-0.157663 -1.618808,-0.345416 -0.405525,-0.187752 -0.961028,-0.579936 -1.234449,-0.871519 -0.273421,-0.291583 -0.625952,-0.838544 -0.783402,-1.215469 -0.15745,-0.376923 -0.284451,-1.040511 -0.282225,-1.474639 0.0022,-0.434128 0.157664,-1.121117 0.345416,-1.526642 0.187752,-0.405525 0.579936,-0.961028 0.87152,-1.234449 0.291582,-0.273421 0.838543,-0.625952 1.215468,-0.783402 0.376924,-0.157451 1.063913,-0.286273 1.526641,-0.286273 0.46273,0 1.138352,0.124105 1.501385,0.275789 l 0.660058,0.275791 -0.130885,-0.874863 c -0.07199,-0.481174 -0.338706,-1.53845 -0.59271,-2.349501 -0.254004,-0.811052 -0.789559,-2.1082672 -1.190124,-2.8826982 -0.400565,-0.774432 -1.182082,-1.909503 -1.736704,-2.522381 -0.659057,-0.728282 -1.40021,-1.310112 -2.139361,-1.67947 -0.835302,-0.417405 -1.386482,-0.565144 -2.108414,-0.565144 -0.537602,0 -1.436959,0.171921 -1.998572,0.382048 -0.561612,0.210125 -1.441798,0.71458 -1.95597,1.121008 -0.514171,0.406429 -1.17501,1.117643 -1.468529,1.580477 l -0.533673,0.841515 -0.179669,-0.472565 c -0.09882,-0.25991 -0.430957,-0.970364 -0.738088,-1.578786 l -0.558418,-1.106221 0.996766,-0.996767 c 0.548222,-0.548223 1.479161,-1.252711 2.068754,-1.565532 0.589593,-0.31282 1.565385,-0.71121206 2.168427,-0.88531406 0.808975,-0.233556 1.495687,-0.29163996 2.619246,-0.221543 1.168192,0.07288 1.792822,0.222149 2.682324,0.64099706 0.637736,0.300296 1.59579,0.89288 2.129013,1.316852 0.533221,0.423972 1.343205,1.245257 1.799964,1.825077 0.456759,0.57982 1.193902,1.75928 1.638095,2.621023 0.444194,0.861742 1.025239,2.260611 1.291212,3.1085971 0.265974,0.8479871 0.618595,2.2995851 0.783604,3.2257741 0.185916,1.043543 0.300016,2.700474 0.300016,4.356765 0,1.656292 -0.1141,3.313223 -0.300016,4.356766 -0.165009,0.926189 -0.51763,2.377787 -0.783604,3.225773 -0.265973,0.847987 -0.848421,2.251654 -1.294328,3.119262 -0.445908,0.867608 -1.256645,2.118059 -1.801639,2.778781 -0.544994,0.660722 -1.406827,1.506631 -1.915182,1.879799 -0.508356,0.373167 -1.40297,0.897636 -1.988031,1.165486 -0.835021,0.382285 -1.423915,0.502501 -2.738781,0.55909 -1.396893,0.06012 -1.873985,0.002 -2.873178,-0.349834 z"
       id="path3" /></g></svg>
