<?xml version="1.0" encoding="UTF-8" standalone="no"?>
<!-- Created with Inkscape (http://www.inkscape.org/) -->

<svg
   width="29mm"
   height="24mm"
   viewBox="0 0 29 24"
   version="1.1"
   id="svg1"
   xml:space="preserve"
   inkscape:version="1.4 (86a8ad7, 2024-10-11)"
   sodipodi:docname="глаза.svg"
   inkscape:export-filename="глаза_интерес.svg"
   inkscape:export-xdpi="96"
   inkscape:export-ydpi="96"
   xmlns:inkscape="http://www.inkscape.org/namespaces/inkscape"
   xmlns:sodipodi="http://sodipodi.sourceforge.net/DTD/sodipodi-0.dtd"
   xmlns="http://www.w3.org/2000/svg"
   xmlns:svg="http://www.w3.org/2000/svg"><sodipodi:namedview
     id="namedview1"
     pagecolor="#ffffff"
     bordercolor="#111111"
     borderopacity="1"
     inkscape:showpageshadow="0"
     inkscape:pageopacity="0"
     inkscape:pagecheckerboard="1"
     inkscape:deskcolor="#d1d1d1"
     inkscape:document-units="mm"
     inkscape:zoom="1.6000176"
     inkscape:cx="92.498984"
     inkscape:cy="163.4357"
     inkscape:window-width="1600"
     inkscape:window-height="837"
     inkscape:window-x="-8"
     inkscape:window-y="-8"
     inkscape:window-maximized="1"
     inkscape:current-layer="layer1"><inkscape:page
       x="0"
       y="0"
       width="29"
       height="24"
       id="page2"
       margin="0"
       bleed="0" /></sodipodi:namedview><defs
     id="defs1" /><g
     inkscape:label="Слой 1"
     inkscape:groupmode="layer"
     id="layer1"
     style="display:inline"><path
       style="display:none;fill:#000000;stroke:#000000;stroke-opacity:1"
       d="m 42.378851,43.60688 c -4.31653,-4.30772 -7.91916,-7.83222 -8.00586,-7.83222 -0.0867,0 -0.93952,0.52432 -1.89517,1.16515 -0.95564,0.64083 -2.42992,1.42585 -3.27618,1.74448 -0.84625,0.31863 -2.37208,0.75888 -3.39073,0.97833 -1.28903,0.2777 -2.62729,0.35455 -4.40203,0.25278 -1.744497,-0.10004 -3.240575,-0.37448 -4.73636,-0.86884 C 15.469996,38.64912 13.640912,37.76995 12.607889,37.09285 11.574866,36.41575 9.9557586,35.03658 9.009873,34.02802 8.063988,33.01947 6.8977516,31.45507 6.4182376,30.55158 5.9387236,29.6481 5.3168316,28.24165 5.0362556,27.42614 c -0.280576,-0.81551 -0.641199,-2.4676 -0.801383,-3.67131 -0.2048401,-1.53928 -0.2104541,-2.7694 -0.01892,-4.14635 0.149777,-1.07678 0.512623,-2.73168 0.806326,-3.67757 0.293703,-0.94588 0.983639,-2.49369 1.533191,-3.43958 0.549552,-0.94589 1.8921584,-2.6127597 2.983568,-3.7041694 1.0914094,-1.09141 2.7582874,-2.4340203 3.7041734,-2.9835703 0.945885,-0.54955 2.493698,-1.24039 3.439583,-1.53519 0.945886,-0.2948001 2.650017,-0.6534901 3.786959,-0.7970801 1.415822,-0.1788099 2.726372,-0.1708199 4.159282,0.0254 1.15067,0.15755 2.75354,0.51401 3.56193,0.7921401 0.80839,0.27813 2.20901,0.89802 3.1125,1.37753 0.90348,0.47952 2.46788,1.6457503 3.47644,2.5916403 1.00856,0.94588 2.38773,2.5649894 3.06483,3.5980094 0.6771,1.03303 1.55627,2.86211 1.9537,4.06463 0.49437,1.49579 0.76881,2.99187 0.86884,4.73636 0.10177,1.77474 0.0249,3.11301 -0.25278,4.40204 -0.21945,1.01865 -0.6597,2.54447 -0.97833,3.39073 -0.31863,0.84625 -1.10364,2.32053 -1.74447,3.27618 -0.64083,0.95564 -1.16515,1.80847 -1.16515,1.89517 0,0.0867 3.52449,3.68933 7.83221,8.00585 6.94922,6.96343 7.8109,7.9186 7.64318,8.47244 -0.10397,0.34332 -0.26495,0.70013 -0.35773,0.79291 -0.0928,0.0928 -0.4496,0.25377 -0.79292,0.35774 -0.55384,0.16772 -1.50901,-0.69396 -8.47243,-7.64318 z m -16.07696,-6.92871 c 0.89413,-0.23068 2.45913,-0.85454 3.47777,-1.38636 1.12726,-0.58852 2.5262,-1.64105 3.57459,-2.68944 1.04838,-1.04838 2.10092,-2.44732 2.68944,-3.57458 0.53182,-1.01865 1.15568,-2.58364 1.38635,-3.47778 0.23068,-0.89413 0.41942,-2.62528 0.41942,-3.84701 0,-1.22173 -0.18117,-2.93095 -0.4026,-3.79827 -0.22143,-0.86732 -0.77639,-2.35085 -1.23325,-3.29673 -0.5853,-1.21182 -1.4628,-2.34834 -2.97084,-3.84781 -1.50961,-1.5010194 -2.66395,-2.3817094 -3.91786,-2.9890694 -0.97772,-0.47358 -2.6446,-1.04585 -3.70417,-1.2716903 -1.29767,-0.2766 -2.66057,-0.36561 -4.17545,-0.27268 -1.407238,0.0863 -2.904469,0.3762503 -4.000387,0.7746503 -0.963285,0.35018 -2.332504,0.9762 -3.042708,1.39114 -0.710205,0.41495 -1.946125,1.3785 -2.746489,2.1412294 -0.800365,0.76272 -1.8573044,2.05199 -2.3487554,2.86503 -0.4914496,0.81304 -1.1853326,2.28092 -1.5419616,3.26195 -0.4098694,1.1275 -0.6991684,2.61108 -0.7863684,4.03266 -0.09292,1.51489 -0.0039,2.87778 0.27268,4.17546 0.225848,1.05957 0.7981104,2.72644 1.2716944,3.70416 0.6073626,1.25391 1.48805,2.40825 2.989074,3.91787 1.497334,1.5059 2.637705,2.38674 3.847803,2.9721 0.945886,0.45755 2.374636,1.00468 3.175001,1.21584 0.800364,0.21115 2.509584,0.39175 3.798267,0.40133 1.33738,0.01 3.04083,-0.16261 3.96875,-0.402 z"
       id="path1" /><path
       style="display:none;fill:#000000;stroke:#000000;stroke-width:0.3;stroke-dasharray:none;stroke-opacity:1"
       d="m 26.207217,50.78886 c -0.2594,-0.259401 -0.471637,-0.840158 -0.471637,-1.290574 0,-0.450415 0.162069,-0.981009 0.36016,-1.179096 0.265472,-0.265475 2.946443,-0.360162 10.19763,-0.360162 h 9.837471 l 0.465093,0.709823 c 0.343269,0.523897 0.390412,0.906249 0.179977,1.459734 -0.156814,0.412454 -0.509099,0.835864 -0.782857,0.940915 -0.273756,0.105048 -4.731442,0.191001 -9.905968,0.191001 -8.152757,0 -9.471168,-0.06295 -9.879869,-0.471641 z M 4.862636,49.323273 C 4.4574551,48.91809 4.1259431,48.276465 4.1259431,47.897435 c 0,-0.379026 0.476689,-2.916882 1.0593068,-5.639679 C 5.7678677,39.534962 6.5112632,36.756274 6.8372415,36.082893 7.2475702,35.235265 11.873853,30.571412 21.873361,20.924665 29.817249,13.261018 37.113756,6.2858723 38.087822,5.4243404 39.125764,4.5063157 40.352281,3.7250532 41.050895,3.536936 c 0.858046,-0.2310479 1.549445,-0.2269379 2.46761,0.014657 1.03467,0.2722643 1.85226,0.9308358 4.329143,3.4871307 1.679467,1.7333125 3.266423,3.6000243 3.526573,4.1482463 0.260149,0.548225 0.473,1.461594 0.473,2.029707 0,0.568116 -0.303888,1.588969 -0.675303,2.268565 -0.4187,0.766112 -6.548619,6.891618 -16.132191,16.120578 -8.50129,8.186725 -16.009508,15.215608 -16.684927,15.619739 -0.840374,0.50283 -2.869757,1.066183 -6.428661,1.784589 -2.8603431,0.577391 -5.4540164,1.049802 -5.763717,1.049802 -0.3097028,0 -0.8946053,-0.331509 -1.299786,-0.73669 z m 7.730207,-3.892715 c 1.933081,-0.401434 3.741381,-0.85674 4.018447,-1.011792 0.277066,-0.155054 6.233828,-5.792705 13.237248,-12.528114 L 42.58203,19.644455 39.056867,16.110086 35.531704,12.575713 33.559945,14.415843 C 32.475477,15.427912 26.828846,20.844383 21.011874,26.452447 15.1949,32.060509 10.229483,36.96343 9.9776148,37.347831 9.7257445,37.732232 9.1831054,39.63547 8.7717467,41.57725 8.3603882,43.519029 7.9537261,45.415077 7.868054,45.790691 7.7346433,46.375579 7.810332,46.451146 8.3952165,46.317029 8.7708296,46.230909 10.659761,45.831987 12.592843,45.430558 Z M 48.545748,13.227591 c 0,-0.316768 -1.2271,-1.88341 -2.726887,-3.4814216 -2.167748,-2.3097186 -2.89628,-2.9054752 -3.553016,-2.9054752 -0.581901,0 -1.350688,0.4814312 -2.600489,1.6284797 l -1.77436,1.6284811 3.601607,3.633445 3.601605,3.633443 1.725769,-1.780507 c 0.949174,-0.979275 1.725771,-2.039678 1.725771,-2.356445 z"
       id="path2" /><path
       style="fill:#a79278;fill-opacity:1;stroke:#a79278;stroke-width:0.498374;stroke-dasharray:none;stroke-opacity:1"
       d="M 6.5772806,23.34106 C 6.3122074,23.275059 5.7780501,23.051961 5.3902653,22.845273 5.0024812,22.638586 4.3946501,22.21531 4.0395311,21.90466 3.6844112,21.594011 3.1497092,20.99565 2.8513037,20.574971 2.5528976,20.154291 2.1133037,19.419051 1.8744286,18.941104 1.6355535,18.463156 1.2927406,17.604844 1.1126222,17.033743 0.93250367,16.462643 0.69420971,15.485023 0.58307999,14.861255 0.45786961,14.158451 0.38102591,13.042544 0.38102591,11.927068 c 0,-1.115477 0.0768437,-2.2313836 0.20205408,-2.9341878 C 0.69420971,8.3691119 0.9316928,7.3914921 1.1108202,6.8203911 1.2899475,6.2492908 1.6812692,5.3071827 1.9804238,4.7268182 2.2795783,4.1464529 2.7760284,3.3521121 3.083645,2.9616159 3.3912623,2.5711196 3.9367697,2.018002 4.2958825,1.732466 4.654996,1.44693 5.3119317,1.0401949 5.7557405,0.82861018 6.5065595,0.47065904 6.6576118,0.4439105 7.9282299,0.4439105 c 1.324463,0 1.3952266,0.0141633 2.3510811,0.47053445 0.771666,0.36843045 1.189208,0.67887365 1.924206,1.43064455 0.516277,0.5280609 1.149238,1.321873 1.406579,1.7640265 0.25734,0.4421526 0.639841,1.249107 0.849999,1.7932297 0.210157,0.5441234 0.48251,1.3820835 0.605227,1.8621342 0.122716,0.48005 0.284734,1.3755945 0.360038,1.9900984 0.0753,0.6145047 0.137074,1.5935907 0.137268,2.1757467 1.91e-4,0.582155 -0.05831,1.531844 -0.130003,2.110418 -0.07169,0.578573 -0.235163,1.476012 -0.363267,1.994309 -0.128104,0.518296 -0.403568,1.384188 -0.612143,1.924204 -0.208574,0.540016 -0.589779,1.34361 -0.847119,1.785764 -0.257341,0.442153 -0.890302,1.235965 -1.406579,1.764025 -0.736504,0.753312 -1.150027,1.060475 -1.919877,1.426075 -0.880381,0.418092 -1.0964231,0.469046 -2.1027978,0.495948 -0.6168846,0.01649 -1.3384873,-0.02401 -1.6035616,-0.09001 z m 2.5859789,-2.058281 c 0.3950969,-0.134622 0.8746275,-0.465633 1.4203405,-0.980431 0.503936,-0.475388 1.025755,-1.131632 1.343764,-1.689928 0.285944,-0.502007 0.686268,-1.415515 0.88961,-2.030019 0.203342,-0.614503 0.421907,-1.410566 0.485701,-1.769026 0.0638,-0.358462 0.102506,-0.651748 0.08602,-0.651748 -0.01648,0 -0.244478,0.08963 -0.506665,0.199179 -0.320127,0.133759 -0.712676,0.182109 -1.195154,0.147209 -0.542113,-0.03922 -0.84779,-0.142774 -1.245413,-0.421938 -0.28983,-0.203485 -0.6619672,-0.614204 -0.8269721,-0.91271 -0.2181176,-0.39459 -0.3000106,-0.734786 -0.3000106,-1.246299 0,-0.511514 0.081896,-0.85171 0.3000106,-1.2463 0.1650049,-0.298506 0.5371421,-0.7092245 0.8269721,-0.9127091 0.397623,-0.2791642 0.7033,-0.3827256 1.245416,-0.4219395 0.482477,-0.034896 0.875026,0.013447 1.195154,0.14721 0.262186,0.109548 0.490185,0.1991781 0.506664,0.1991781 0.01648,0 -0.02223,-0.293286 -0.08602,-0.6517468 C 13.238876,8.6823002 13.020316,7.8862374 12.816974,7.2717341 12.613632,6.6572302 12.213308,5.7437221 11.927364,5.2417159 11.609355,4.6834185 11.087536,4.0271752 10.5836,3.551787 10.037887,3.0369882 9.5583564,2.7059783 9.1632595,2.5713554 8.8351968,2.4595741 8.2504732,2.3681157 7.8638723,2.3681157 c -0.5359898,0 -0.8837868,0.090385 -1.4645849,0.3806123 C 5.901486,2.9974826 5.4023355,3.3893326 4.9584748,3.8798147 4.5849489,4.2925748 4.058614,5.0570206 3.7888422,5.5785838 3.5190703,6.1001463 3.1593588,6.9737927 2.989484,7.5200187 2.8196085,8.066244 2.6073833,8.9321366 2.5178714,9.4442236 2.4283598,9.9563098 2.3551237,11.073589 2.3551237,11.927068 c 0,0.853477 0.073236,1.970758 0.1627477,2.482844 0.089512,0.512087 0.3017371,1.377979 0.4716126,1.924205 0.1698748,0.546226 0.5295863,1.419871 0.7993582,1.941435 0.2697718,0.521562 0.7961067,1.286008 1.1696326,1.698768 0.4438607,0.490482 0.9430112,0.882333 1.4408126,1.131088 0.5807981,0.290226 0.9285951,0.380611 1.4645849,0.380611 0.3866009,0 0.9713245,-0.09146 1.2993872,-0.20324 z m 10.3722685,1.915032 c -0.443808,-0.156286 -1.070446,-0.439063 -1.392529,-0.628395 -0.322083,-0.18933 -0.864758,-0.627829 -1.205945,-0.974441 l -0.620341,-0.630202 0.374982,-0.742832 c 0.206238,-0.408559 0.42943,-0.88605 0.495982,-1.061094 l 0.121004,-0.318263 0.359417,0.566742 c 0.197679,0.311708 0.642739,0.790696 0.989022,1.064417 0.346284,0.273721 0.93907,0.61346 1.317304,0.754975 0.378234,0.141516 0.983931,0.257301 1.345995,0.257301 0.486205,0 0.857413,-0.0995 1.419971,-0.380611 0.497803,-0.248755 0.996953,-0.640606 1.440814,-1.131088 0.373526,-0.41276 0.89986,-1.177206 1.169632,-1.698768 0.269772,-0.521564 0.630456,-1.395209 0.801523,-1.941435 0.171066,-0.546226 0.350696,-1.258278 0.399177,-1.582339 l 0.08815,-0.5892 -0.444536,0.185737 c -0.244494,0.102157 -0.711683,0.184512 -1.038197,0.183013 -0.326514,-0.0015 -0.817119,-0.106182 -1.090233,-0.23263 -0.273112,-0.126447 -0.647231,-0.390575 -0.831374,-0.586949 -0.184144,-0.196375 -0.421565,-0.564741 -0.527604,-0.818592 -0.106039,-0.25385 -0.191572,-0.700762 -0.190073,-0.993138 0.0015,-0.292376 0.106183,-0.755048 0.232631,-1.02816 0.126447,-0.273113 0.390574,-0.647232 0.586949,-0.831375 0.196375,-0.1841432 0.564741,-0.4215648 0.818591,-0.5276039 0.253851,-0.10604 0.716523,-0.1927988 1.02816,-0.1927988 0.311639,0 0.766656,0.083582 1.01115,0.1857379 L 26.639685,9.691558 26.551536,9.1023571 C 26.503053,8.7782965 26.323425,8.066244 26.152359,7.5200187 25.981292,6.9737927 25.620608,6.1001463 25.350836,5.5785838 25.081064,5.0570206 24.55473,4.2925748 24.181204,3.8798147 23.737343,3.3893326 23.238193,2.9974826 22.74039,2.748728 22.177832,2.4676148 21.806624,2.3681157 21.320419,2.3681157 c -0.362064,0 -0.967761,0.1157851 -1.345995,0.2573011 C 19.59619,2.7669314 19.003404,3.106671 18.65712,3.3803914 18.310837,3.6541126 17.865777,4.1330998 17.668098,4.4448085 L 17.308681,5.0115507 17.187677,4.6932883 C 17.121124,4.5182446 16.897437,4.0397692 16.690591,3.6300102 l -0.376082,-0.745016 0.6713,-0.671301 c 0.369216,-0.3692163 0.996183,-0.8436738 1.393262,-1.0543519 0.397077,-0.21067755 1.054252,-0.47898601 1.460388,-0.59623993 0.544827,-0.15729493 1.007312,-0.19641321 1.764006,-0.14920443 0.786751,0.0490831 1.207426,0.14961255 1.806486,0.43169766 0.429502,0.2022429 1.074731,0.6013354 1.433845,0.8868714 0.359113,0.285536 0.904619,0.8386536 1.212236,1.2291499 0.307618,0.3904962 0.804068,1.184837 1.103222,1.7652023 0.299155,0.5803645 0.690476,1.5224726 0.869604,2.0935729 0.179127,0.571101 0.41661,1.5487208 0.52774,2.1724891 0.12521,0.7028042 0.202054,1.8187108 0.202054,2.9341878 0,1.115476 -0.07685,2.231383 -0.202054,2.934187 -0.11113,0.623768 -0.348613,1.601388 -0.52774,2.172488 -0.179128,0.571101 -0.571394,1.516441 -0.871702,2.100756 -0.30031,0.584315 -0.846324,1.426466 -1.213366,1.871449 -0.367041,0.444982 -0.947466,1.014684 -1.289833,1.266004 -0.342367,0.251319 -0.94487,0.604538 -1.338895,0.78493 -0.562369,0.25746 -0.958977,0.338423 -1.844511,0.376534 -0.940777,0.04049 -1.262088,0.0013 -1.935023,-0.235605 z"
       id="path3" /></g></svg>
