<?xml version="1.0" encoding="UTF-8" standalone="no"?>
<!-- Created with Inkscape (http://www.inkscape.org/) -->

<svg
   width="24mm"
   height="24mm"
   viewBox="0 0 24 24"
   version="1.1"
   id="svg1"
   xml:space="preserve"
   inkscape:version="1.4 (86a8ad7, 2024-10-11)"
   sodipodi:docname="комментарии.svg"
   inkscape:export-filename="комментарии.svg"
   inkscape:export-xdpi="96"
   inkscape:export-ydpi="96"
   xmlns:inkscape="http://www.inkscape.org/namespaces/inkscape"
   xmlns:sodipodi="http://sodipodi.sourceforge.net/DTD/sodipodi-0.dtd"
   xmlns="http://www.w3.org/2000/svg"
   xmlns:svg="http://www.w3.org/2000/svg"><sodipodi:namedview
     id="namedview1"
     pagecolor="#ffffff"
     bordercolor="#111111"
     borderopacity="1"
     inkscape:showpageshadow="0"
     inkscape:pageopacity="0"
     inkscape:pagecheckerboard="1"
     inkscape:deskcolor="#d1d1d1"
     inkscape:document-units="mm"
     inkscape:zoom="0.56569164"
     inkscape:cx="396.85932"
     inkscape:cy="561.25984"
     inkscape:window-width="1600"
     inkscape:window-height="837"
     inkscape:window-x="-8"
     inkscape:window-y="-8"
     inkscape:window-maximized="1"
     inkscape:current-layer="layer1"><inkscape:page
       x="0"
       y="0"
       width="24"
       height="24"
       id="page2"
       margin="0"
       bleed="0" /></sodipodi:namedview><defs
     id="defs1" /><g
     inkscape:label="Слой 1"
     inkscape:groupmode="layer"
     id="layer1"><path
       style="fill:#a79278;fill-opacity:1;stroke:none;stroke-width:0.384722"
       d="M 10.607948,0.20937156 C 4.0863292,1.0971004 -0.15511375,6.6397139 0.12749115,13.093536 c 0.0468668,1.070369 0.34709194,2.155108 0.71394699,3.155521 0.18491996,0.504275 0.60594766,1.091409 0.63430936,1.628654 0.063052,1.194387 -0.7771603,2.825103 -1.12017037,3.969846 -0.1685734,0.562578 -0.43535086,1.301323 0.0156196,1.808987 0.46320466,0.521425 1.21923617,0.301556 1.78809697,0.127554 1.2412271,-0.379661 2.582986,-0.956428 3.868052,-1.13706 0.80089,-0.112573 1.9635881,0.694545 2.7483542,0.927272 1.4360041,0.425852 3.0919721,0.559831 4.5805911,0.381794 1.784701,-0.213448 3.443708,-0.782444 4.987758,-1.702797 1.270962,-0.757574 2.352864,-1.77649 3.244032,-2.950523 C 27.77185,11.156248 20.925842,-1.1951118 10.607937,0.20937156 M 2.871825,21.236811 C 3.0288876,20.071397 3.9133277,18.747458 3.7647752,17.572339 3.654391,16.699151 2.9673937,15.878139 2.7128581,15.027567 2.0546612,12.828109 2.160825,10.55142 2.9802165,8.4111567 3.4239813,7.2520327 4.152209,6.1463469 5.0134426,5.2560323 11.4215,-1.3684214 22.985202,4.2932934 21.716418,13.398909 c -0.197386,1.416587 -0.674486,2.761254 -1.443846,3.969846 -0.889971,1.398067 -2.122008,2.499182 -3.557181,3.315511 -2.295187,1.305506 -5.139776,1.458018 -7.6343176,0.711515 C 8.2304959,21.141242 7.4094887,20.454248 6.5362977,20.343864 5.3611771,20.195308 4.0372387,21.079752 2.871825,21.236811 Z"
       id="path1" /></g></svg>
