<?xml version="1.0" encoding="UTF-8" standalone="no"?>
<!-- Created with Inkscape (http://www.inkscape.org/) -->

<svg
   width="35mm"
   height="35mm"
   viewBox="0 0 35 35"
   version="1.1"
   id="svg1"
   xml:space="preserve"
   inkscape:version="1.4 (86a8ad7, 2024-10-11)"
   sodipodi:docname="глаза.svg"
   inkscape:export-filename="лупа.svg"
   inkscape:export-xdpi="96"
   inkscape:export-ydpi="96"
   xmlns:inkscape="http://www.inkscape.org/namespaces/inkscape"
   xmlns:sodipodi="http://sodipodi.sourceforge.net/DTD/sodipodi-0.dtd"
   xmlns="http://www.w3.org/2000/svg"
   xmlns:svg="http://www.w3.org/2000/svg"><sodipodi:namedview
     id="namedview1"
     pagecolor="#ffffff"
     bordercolor="#111111"
     borderopacity="1"
     inkscape:showpageshadow="0"
     inkscape:pageopacity="0"
     inkscape:pagecheckerboard="1"
     inkscape:deskcolor="#d1d1d1"
     inkscape:document-units="mm"
     inkscape:zoom="1.6000176"
     inkscape:cx="92.498984"
     inkscape:cy="163.4357"
     inkscape:window-width="1600"
     inkscape:window-height="837"
     inkscape:window-x="-8"
     inkscape:window-y="-8"
     inkscape:window-maximized="1"
     inkscape:current-layer="layer1"><inkscape:page
       x="0"
       y="0"
       width="35"
       height="35"
       id="page2"
       margin="0"
       bleed="0" /></sodipodi:namedview><defs
     id="defs1" /><g
     inkscape:label="Слой 1"
     inkscape:groupmode="layer"
     id="layer1"
     style="display:inline"><path
       style="display:inline;fill:#3f2b12;stroke:#3f2b12;stroke-width:0.708394;stroke-opacity:1;fill-opacity:1"
       d="m 27.673146,29.030649 c -3.057802,-3.051561 -5.609882,-5.548295 -5.6713,-5.548295 -0.06142,0 -0.66555,0.371424 -1.342526,0.825385 -0.67697,0.453959 -1.72134,1.010062 -2.320826,1.235778 -0.599477,0.225715 -1.680366,0.537586 -2.401972,0.693043 -0.91314,0.196721 -1.861155,0.251161 -3.118369,0.179068 C 11.582362,26.344762 10.52255,26.150349 9.462945,25.800147 8.6110841,25.518603 7.3153726,24.895805 6.5835858,24.416151 5.8517988,23.936498 4.7048334,22.959502 4.0347741,22.245045 3.3647151,21.530595 2.5385606,20.422384 2.198876,19.782357 1.8591913,19.142337 1.4186469,18.146017 1.2198887,17.568315 1.0211304,16.990613 0.76566738,15.820283 0.65219396,14.967582 0.50708654,13.877166 0.50310964,13.005757 0.63879114,12.030334 0.74489223,11.26755 1.0019301,10.095229 1.2099875,9.4251672 1.4180448,8.7551121 1.9067911,7.6586527 2.2960902,6.9885902 2.6853894,6.3185278 3.6364833,5.1377278 4.4096309,4.3645802 5.1827784,3.5914322 6.3635842,2.6403356 7.0336439,2.2510378 7.7037032,1.8617401 8.8001635,1.3723534 9.470223,1.1635189 c 0.67006,-0.20883447 1.877255,-0.46292823 2.682657,-0.56464642 1.00296,-0.12666785 1.931345,-0.12100781 2.946409,0.0179932 0.815127,0.11160742 1.950591,0.36412146 2.523249,0.56114722 0.572658,0.1970254 1.564848,0.6361516 2.204875,0.9758334 0.64002,0.3396889 1.748231,1.1658392 2.462688,1.8359016 0.714458,0.6700554 1.691453,1.8170223 2.171106,2.5488071 0.479653,0.7317919 1.102452,2.0275007 1.383989,2.8793583 0.350208,1.0596077 0.544621,2.1194217 0.615481,3.3552067 0.0721,1.257214 0.01764,2.205237 -0.179068,3.118377 -0.155457,0.721606 -0.467328,1.802487 -0.693043,2.401972 -0.225716,0.599479 -0.781811,1.643849 -1.235771,2.320825 -0.45396,0.67697 -0.825385,1.281109 -0.825385,1.342526 0,0.06142 2.496727,2.613498 5.548288,5.671295 4.922784,4.932849 5.533192,5.609485 5.41438,6.001823 -0.07365,0.243205 -0.187689,0.495967 -0.253414,0.561692 -0.06574,0.06574 -0.318493,0.179769 -0.561699,0.253421 -0.392337,0.118811 -1.068974,-0.491598 -6.001816,-5.414381 z M 16.28433,24.122395 c 0.633396,-0.163412 1.742032,-0.605352 2.46363,-0.982089 0.798544,-0.416904 1.789544,-1.16251 2.532217,-1.905182 0.742666,-0.742666 1.488279,-1.733666 1.905182,-2.53221 0.376738,-0.721605 0.818677,-1.830234 0.982082,-2.463637 0.163412,-0.633397 0.297114,-1.859732 0.297114,-2.725198 0,-0.865466 -0.12834,-2.076267 -0.285199,-2.690671 C 24.022496,10.209004 23.629366,9.1580812 23.305729,8.4880261 22.891106,7.6295803 22.269491,6.8244767 21.201206,5.7622617 20.131807,4.698949 19.31408,4.0750738 18.425818,3.6448238 17.733207,3.3093427 16.5524,2.9039503 15.801808,2.7439665 14.882546,2.5480248 13.917076,2.4849707 12.843946,2.5508017 11.847066,2.611936 10.786438,2.817335 10.010096,3.0995591 9.3277121,3.3476243 8.3577653,3.791093 7.8546617,4.0850338 7.3515571,4.3789818 6.4760388,5.0615545 5.9090661,5.6018672 5.3420926,6.1421731 4.5933634,7.0554838 4.2452226,7.6314362 3.8970829,8.2073885 3.4055406,9.2472254 3.1529068,9.942181 2.862558,10.740895 2.6576203,11.791853 2.5958484,12.798892 c -0.065824,1.073139 -0.00276,2.038601 0.1931648,2.957869 0.1599893,0.750593 0.5653764,1.931393 0.9008603,2.624004 0.4302518,0.888262 1.0541251,1.705988 2.1174411,2.775394 1.0607018,1.06677 1.868534,1.690751 2.7257596,2.105417 0.6700596,0.324125 1.6821768,0.711709 2.2491508,0.861293 0.566973,0.149578 1.777772,0.277513 2.690668,0.2843 0.94739,0.007 2.154104,-0.115192 2.811437,-0.284774 z"
       id="path1" /><path
       style="display:none;fill:#a79278;fill-opacity:1;stroke:#a79278;stroke-width:0.21456;stroke-dasharray:none;stroke-opacity:1"
       d="m 16.37478,34.312697 c -0.185523,-0.185523 -0.337315,-0.600881 -0.337315,-0.923019 0,-0.322137 0.115912,-0.701619 0.257587,-0.843291 0.189866,-0.189868 2.107299,-0.257588 7.293354,-0.257588 h 7.035768 l 0.332635,0.507666 c 0.245506,0.374692 0.279223,0.64815 0.128719,1.044003 -0.112153,0.294988 -0.364108,0.597811 -0.5599,0.672943 -0.19579,0.07513 -3.383931,0.136604 -7.084757,0.136604 -5.830859,0 -6.773787,-0.04502 -7.066091,-0.337318 z M 1.1091168,33.264508 C 0.81933109,32.974721 0.58223339,32.51583 0.58223339,32.244748 c 0,-0.27108 0.3409284,-2.086157 0.75761721,-4.033504 C 1.7565393,26.2639 2.2882164,24.27658 2.5213564,23.794977 2.8148238,23.188753 6.1235453,19.853161 13.275203,12.953799 18.956678,7.4727519 24.175147,2.4841219 24.871799,1.8679535 c 0.742337,-0.656572 1.619543,-1.21533162 2.119193,-1.34987322 0.613675,-0.1652457 1.108164,-0.1623062 1.764837,0.010483 0.739997,0.1947236 1.324738,0.66573462 3.096206,2.49399892 1.201157,1.2396666 2.336149,2.5747405 2.522209,2.9668293 0.186058,0.392091 0.33829,1.0453333 0.33829,1.4516484 0,0.406317 -0.217341,1.136432 -0.482978,1.622479 -0.299454,0.547924 -4.683578,4.9288911 -11.537757,11.5294521 -6.08013,5.855152 -11.450014,10.882216 -11.933074,11.17125 -0.601037,0.359625 -2.0524538,0.762535 -4.5977847,1.27634 -2.0457199,0.412951 -3.9007173,0.750819 -4.1222154,0.750819 -0.2214997,0 -0.6398225,-0.237095 -0.9296081,-0.526881 z m 5.5286504,-2.784073 c 1.382542,-0.287106 2.675839,-0.612741 2.873997,-0.723634 0.198158,-0.110895 4.4584398,-4.142948 9.4672918,-8.960118 l 9.107005,-8.758491 -2.5212,-2.5277841 -2.521199,-2.5277865 -1.410204,1.3160625 c -0.775613,0.723833 -4.814088,4.5976971 -8.974391,8.6085901 -4.1603058,4.010891 -7.7115765,7.517464 -7.8917129,7.792388 -0.1801379,0.274924 -0.5682338,1.636121 -0.8624379,3.024884 -0.294204,1.388762 -0.5850491,2.744817 -0.6463218,3.013457 -0.095415,0.418312 -0.041283,0.472358 0.3770271,0.376437 0.2686388,-0.06159 1.6196042,-0.346902 3.0021457,-0.634005 z M 32.351317,7.4488449 c 0,-0.226553 -0.877623,-1.3470162 -1.950272,-2.4899155 C 28.85067,3.3070166 28.329623,2.880931 27.859925,2.880931 c -0.416176,0 -0.966013,0.34432 -1.859872,1.1646901 l -1.269024,1.1646911 2.575873,2.5986427 2.575871,2.5986421 1.234271,-1.2734201 c 0.67885,-0.700379 1.234273,-1.45878 1.234273,-1.685332 z"
       id="path2" /><path
       style="display:none;fill:#a79278;fill-opacity:1;stroke:#a79278;stroke-width:0.74;stroke-dasharray:none;stroke-opacity:1"
       d="M 9.5368527,34.42109 C 9.1432644,34.32309 8.3501324,33.991827 7.7743384,33.684932 7.1985454,33.378037 6.2960204,32.749545 5.7687294,32.288283 5.2414374,31.827022 4.4474964,30.938559 4.0044154,30.313923 3.5613334,29.689285 2.9086118,28.59758 2.5539232,27.88791 2.1992346,27.178239 1.6902161,25.903793 1.4227712,25.055806 1.1553261,24.20782 0.80150041,22.756222 0.63649181,21.830033 0.45057585,20.78649 0.33647613,19.129559 0.33647613,17.473267 c 0,-1.656291 0.11409972,-3.313222 0.30001568,-4.356765 0.1650086,-0.926189 0.51763029,-2.377787 0.78360369,-3.2257741 0.2659734,-0.8479861 0.847019,-2.2468551 1.2912124,-3.1085971 0.4441932,-0.861743 1.1813365,-2.041203 1.6380945,-2.621023 0.456759,-0.57982 1.266744,-1.401105 1.799965,-1.825077 0.533222,-0.423972 1.508659,-1.027904 2.167639,-1.34207096 1.1148375,-0.5314961 1.3391243,-0.5712131 3.2257746,-0.5712131 1.9666,0 2.071672,0.02103 3.490953,0.69866306 1.145791,0.547056 1.76577,1.008011 2.857115,2.124262 0.766584,0.78408 1.706422,1.962755 2.088529,2.619277 0.382107,0.656521 0.950054,1.85471 1.262103,2.662639 0.312048,0.80793 0.716445,2.0521572 0.898659,2.7649502 0.182212,0.712792 0.42278,2.042522 0.534595,2.954955 0.111813,0.912434 0.203532,2.366209 0.203818,3.23061 2.85e-4,0.864402 -0.08658,2.274527 -0.193031,3.133609 -0.106452,0.859083 -0.349178,2.191626 -0.539389,2.961208 -0.190213,0.769581 -0.59923,2.055282 -0.908928,2.857113 -0.309697,0.801832 -0.87572,1.995031 -1.257827,2.651554 -0.382107,0.656521 -1.321945,1.835196 -2.088529,2.619276 -1.093582,1.118539 -1.707592,1.574623 -2.850688,2.117476 -1.307215,0.620795 -1.628001,0.696453 -3.122294,0.736398 -0.915968,0.02449 -1.9874243,-0.03565 -2.3810143,-0.133647 z m 3.8397353,-3.056194 c 0.586651,-0.199891 1.298672,-0.691385 2.108963,-1.455772 0.748259,-0.70587 1.52307,-1.680279 1.995258,-2.509255 0.424578,-0.745393 1.018992,-2.101796 1.320919,-3.014229 0.301928,-0.912433 0.62646,-2.094449 0.721183,-2.626701 0.09473,-0.532254 0.152204,-0.967733 0.127734,-0.967733 -0.02446,0 -0.363008,0.133086 -0.752309,0.295746 -0.475335,0.198608 -1.058203,0.2704 -1.7746,0.218581 -0.80495,-0.05823 -1.258827,-0.211996 -1.849229,-0.626507 -0.430347,-0.30214 -0.982907,-0.911987 -1.227912,-1.355217 -0.323867,-0.585899 -0.445464,-1.091032 -0.445464,-1.850542 0,-0.759509 0.121597,-1.264642 0.445464,-1.850541 0.245005,-0.44323 0.797565,-1.053077 1.227912,-1.355217 0.590402,-0.414511 1.044279,-0.568282 1.849229,-0.626507 0.716397,-0.05182 1.299265,0.01997 1.7746,0.218581 0.389301,0.16266 0.72784,0.295746 0.752309,0.295746 0.02446,0 -0.03301,-0.43548 -0.127734,-0.967733 -0.09473,-0.532252 -0.419255,-1.714269 -0.721183,-2.626701 C 18.499801,9.6484619 17.905387,8.2920588 17.480809,7.5466658 17.008621,6.7176898 16.23381,5.7432808 15.485551,5.0374108 14.67526,4.2730228 13.963239,3.7815298 13.376588,3.5816378 c -0.487116,-0.165976 -1.355331,-0.301776 -1.929367,-0.301776 -0.795853,0 -1.312272,0.134206 -2.1746576,0.565144 -0.73915,0.369358 -1.480303,0.951188 -2.13936,1.67947 -0.554622,0.612878 -1.336139,1.747949 -1.736704,2.522381 -0.400565,0.774431 -0.934675,2.0716462 -1.18691,2.8826982 -0.252236,0.811051 -0.567354,2.096753 -0.700264,2.857114 -0.1329093,0.760361 -0.2416523,2.41933 -0.2416523,3.686598 0,1.267268 0.108743,2.926238 0.2416523,3.686599 0.13291,0.760361 0.448028,2.046062 0.700264,2.857114 0.252235,0.811052 0.786345,2.108266 1.18691,2.882698 0.400565,0.774431 1.182082,1.909503 1.736704,2.522381 0.659057,0.728281 1.40021,1.310112 2.13936,1.67947 0.8623856,0.430938 1.3788046,0.565144 2.1746576,0.565144 0.574036,0 1.442251,-0.1358 1.929367,-0.301777 z M 28.77763,34.20839 c -0.658979,-0.232057 -1.589429,-0.651933 -2.067667,-0.933058 -0.478238,-0.281124 -1.284017,-0.932219 -1.790622,-1.446878 l -0.9211,-0.935743 0.556783,-1.102978 c 0.306229,-0.606639 0.637632,-1.315633 0.73645,-1.575543 l 0.179669,-0.472565 0.533673,0.841515 c 0.293519,0.462833 0.954358,1.174048 1.468529,1.580476 0.514172,0.406429 1.394358,0.910883 1.95597,1.121009 0.561613,0.210127 1.46097,0.382048 1.998572,0.382048 0.721932,0 1.273112,-0.147739 2.108414,-0.565144 0.739151,-0.369358 1.480304,-0.951189 2.139361,-1.67947 0.554622,-0.612878 1.336139,-1.74795 1.736704,-2.522381 0.400565,-0.774432 0.93612,-2.071646 1.190124,-2.882698 0.254004,-0.811052 0.520724,-1.868327 0.59271,-2.349502 l 0.130885,-0.874862 -0.660058,0.27579 c -0.363033,0.151685 -1.056728,0.273968 -1.541546,0.271742 -0.484818,-0.0022 -1.213282,-0.157663 -1.618808,-0.345416 -0.405525,-0.187752 -0.961028,-0.579936 -1.234449,-0.871519 -0.273421,-0.291583 -0.625952,-0.838544 -0.783402,-1.215469 -0.15745,-0.376923 -0.284451,-1.040511 -0.282225,-1.474639 0.0022,-0.434128 0.157664,-1.121117 0.345416,-1.526642 0.187752,-0.405525 0.579936,-0.961028 0.87152,-1.234449 0.291582,-0.273421 0.838543,-0.625952 1.215468,-0.783402 0.376924,-0.157451 1.063913,-0.286273 1.526641,-0.286273 0.46273,0 1.138352,0.124105 1.501385,0.275789 l 0.660058,0.275791 -0.130885,-0.874863 c -0.07199,-0.481174 -0.338706,-1.53845 -0.59271,-2.349501 -0.254004,-0.811052 -0.789559,-2.1082672 -1.190124,-2.8826982 -0.400565,-0.774432 -1.182082,-1.909503 -1.736704,-2.522381 -0.659057,-0.728282 -1.40021,-1.310112 -2.139361,-1.67947 -0.835302,-0.417405 -1.386482,-0.565144 -2.108414,-0.565144 -0.537602,0 -1.436959,0.171921 -1.998572,0.382048 -0.561612,0.210125 -1.441798,0.71458 -1.95597,1.121008 -0.514171,0.406429 -1.17501,1.117643 -1.468529,1.580477 l -0.533673,0.841515 -0.179669,-0.472565 c -0.09882,-0.25991 -0.430957,-0.970364 -0.738088,-1.578786 l -0.558418,-1.106221 0.996766,-0.996767 c 0.548222,-0.548223 1.479161,-1.252711 2.068754,-1.565532 0.589593,-0.31282 1.565385,-0.71121206 2.168427,-0.88531406 0.808975,-0.233556 1.495687,-0.29163996 2.619246,-0.221543 1.168192,0.07288 1.792822,0.222149 2.682324,0.64099706 0.637736,0.300296 1.59579,0.89288 2.129013,1.316852 0.533221,0.423972 1.343205,1.245257 1.799964,1.825077 0.456759,0.57982 1.193902,1.75928 1.638095,2.621023 0.444194,0.861742 1.025239,2.260611 1.291212,3.1085971 0.265974,0.8479871 0.618595,2.2995851 0.783604,3.2257741 0.185916,1.043543 0.300016,2.700474 0.300016,4.356765 0,1.656292 -0.1141,3.313223 -0.300016,4.356766 -0.165009,0.926189 -0.51763,2.377787 -0.783604,3.225773 -0.265973,0.847987 -0.848421,2.251654 -1.294328,3.119262 -0.445908,0.867608 -1.256645,2.118059 -1.801639,2.778781 -0.544994,0.660722 -1.406827,1.506631 -1.915182,1.879799 -0.508356,0.373167 -1.40297,0.897636 -1.988031,1.165486 -0.835021,0.382285 -1.423915,0.502501 -2.738781,0.55909 -1.396893,0.06012 -1.873985,0.002 -2.873178,-0.349834 z"
       id="path3" /></g></svg>
