<?xml version="1.0" encoding="UTF-8" standalone="no"?>
<!-- Created with Inkscape (http://www.inkscape.org/) -->

<svg
   width="85.48423mm"
   height="85.484604mm"
   viewBox="0 0 85.48423 85.484604"
   version="1.1"
   id="svg1"
   xml:space="preserve"
   inkscape:export-filename="светлая_тема.svg"
   inkscape:export-xdpi="96"
   inkscape:export-ydpi="96"
   xmlns:inkscape="http://www.inkscape.org/namespaces/inkscape"
   xmlns:sodipodi="http://sodipodi.sourceforge.net/DTD/sodipodi-0.dtd"
   xmlns="http://www.w3.org/2000/svg"
   xmlns:svg="http://www.w3.org/2000/svg"><sodipodi:namedview
     id="namedview1"
     pagecolor="#ffffff"
     bordercolor="#111111"
     borderopacity="1"
     inkscape:showpageshadow="0"
     inkscape:pageopacity="0"
     inkscape:pagecheckerboard="1"
     inkscape:deskcolor="#d1d1d1"
     inkscape:document-units="mm"><inkscape:page
       x="0"
       y="0"
       width="85.48423"
       height="85.484604"
       id="page2"
       margin="0"
       bleed="0" /></sodipodi:namedview><defs
     id="defs1" /><g
     inkscape:label="Слой 1"
     inkscape:groupmode="layer"
     id="layer1"
     transform="translate(-1.9227573,-4.6601049)"><path
       style="display:inline;fill:#f0e8d1;fill-opacity:1;stroke:none"
       d="m 44.202837,4.7044534 c -1.081136,0.196668 -1.989651,1.0313936 -2.280162,2.0934564 -0.527822,1.9296354 -0.226417,4.1995962 -0.226417,6.1828942 0,1.412251 -0.166993,2.986915 0.309197,4.344737 0.463657,1.322084 1.851312,2.006548 3.200013,1.802573 1.06755,-0.161455 1.951732,-0.934781 2.2487,-1.969678 0.622774,-2.170283 0.257879,-4.78144 0.257879,-7.018421 0,-1.1884015 0.133784,-2.5515731 -0.335113,-3.6763157 C 46.860329,5.2245206 45.52619,4.4637297 44.202837,4.7044534 M 15.962048,16.401822 c -1.815875,0.326831 -2.947592,2.395605 -2.096037,4.098719 1.217229,2.43446 4.471676,4.808055 6.440774,6.677504 0.782075,0.742499 1.717008,1.33367 2.840789,1.087342 1.805852,-0.39584 2.909538,-2.384162 2.057354,-4.08853 -0.426152,-0.852304 -1.227037,-1.509114 -1.890249,-2.172369 -1.687593,-1.687697 -4.632383,-6.092273 -7.352631,-5.602666 m 56.481577,0.01019 c -1.12693,0.247022 -1.893168,1.135946 -2.673684,1.916162 -1.707428,1.70677 -4.702115,3.765014 -5.643413,6.015789 -0.809345,1.93526 0.839157,4.27454 2.969729,3.953145 2.437397,-0.36768 4.858465,-3.965558 6.517105,-5.624198 0.694037,-0.694036 1.626155,-1.406839 2.003718,-2.339473 0.823017,-2.03298 -0.973395,-4.403674 -3.173455,-3.921425 m -28.073683,9.513393 c -4.581794,0.400949 -8.778926,1.400863 -12.532894,4.250352 -2.226326,1.689916 -4.110796,3.804613 -5.547869,6.199785 -9.012505,15.021165 3.521126,34.036686 20.754447,32.390055 10.724682,-1.024738 19.160371,-10.668315 19.160371,-21.361108 0,-11.188913 -10.059142,-22.509499 -21.834055,-21.479084 m 0.33421,5.866604 c 13.532329,0 20.82557,16.941575 11.19541,26.641299 -1.352722,1.362493 -2.913475,2.460243 -4.678305,3.221804 -2.078682,0.896993 -4.24897,1.361856 -6.517105,1.361856 -13.532346,0 -20.825543,-16.941585 -11.195407,-26.641299 1.40004,-1.410155 3.015835,-2.518232 4.845408,-3.294786 2.022494,-0.858439 4.150662,-1.288874 6.349999,-1.288874 M 4.9331007,44.468156 c -2.6268622,0.380546 -4.43728507,3.982815 -1.5014976,5.494998 1.0845931,0.558667 2.4936442,0.449228 3.6738659,0.449228 2.3210119,0 4.914413,0.320778 7.185527,-0.217393 2.476187,-0.58676 2.981574,-4.172593 0.667776,-5.349173 -1.090637,-0.554597 -2.490973,-0.449223 -3.675671,-0.449223 -2.0732881,0 -4.2967859,-0.225879 -6.3500003,0.07156 m 71.0197353,0 c -2.653439,0.381148 -4.517528,3.962243 -1.503305,5.494998 1.090636,0.554597 2.490969,0.449228 3.675673,0.449228 2.265376,0 4.798911,0.31421 7.018421,-0.187866 2.652112,-0.599927 3.099749,-4.188065 0.668421,-5.417509 -1.040007,-0.525896 -2.381597,-0.410414 -3.509211,-0.410414 -2.07422,0 -4.29554,-0.223548 -6.349999,0.07156 M 22.144943,66.543583 c -2.387137,0.523259 -4.683551,3.926035 -6.35,5.592483 -0.69404,0.694041 -1.626152,1.406834 -2.003715,2.339473 -0.797839,1.970774 0.858149,4.277197 3.006346,3.953145 1.129653,-0.170405 1.905583,-1.013958 2.673685,-1.780776 1.752263,-1.749333 4.84567,-3.875809 5.810518,-6.182895 0.835875,-1.998695 -0.954953,-4.399701 -3.136834,-3.92143 m 44.115788,-0.01032 c -1.920436,0.339463 -3.013316,2.311946 -2.163985,4.098852 0.439483,0.924628 1.285672,1.628221 1.996879,2.339474 1.681594,1.681701 4.603381,6.047973 7.352632,5.425893 1.810099,-0.409579 2.84747,-2.404642 2.005263,-4.089051 -1.216062,-2.432129 -4.24305,-4.632433 -6.182895,-6.514525 -0.829396,-0.804709 -1.796274,-1.474808 -3.007894,-1.260643 m -22.392105,9.218644 c -0.926886,0.26794 -1.648379,0.971268 -1.914489,1.898629 -0.622774,2.170278 -0.257879,4.78144 -0.257879,7.018421 0,1.188407 -0.133782,2.551573 0.335113,3.676316 0.569587,1.366272 2.094101,2.102921 3.508308,1.680594 0.930563,-0.277895 1.690584,-1.081223 1.945954,-2.014805 0.580809,-2.123335 0.226414,-4.666968 0.226414,-6.851315 0,-1.244896 0.127512,-2.66807 -0.372249,-3.843294 -0.560135,-1.317203 -2.116996,-1.956005 -3.471172,-1.564546 z"
       id="path1" /><path
       style="fill:#d3c497;fill-opacity:1;stroke:#d3c497;stroke-width:3.05152;stroke-dasharray:none;stroke-opacity:1"
       d="m 39.565389,28.289017 c -2.371656,0.496566 -4.666354,1.808957 -6.610924,3.194586 -2.06353,1.470397 -3.85957,3.395005 -5.165733,5.560565 -5.036612,8.350483 -3.429667,19.317407 4.166407,25.625624 1.410185,1.171096 2.998043,2.178551 4.689144,2.899894 2.07991,0.887186 4.276295,1.455475 6.534055,1.612901 2.230959,0.155559 4.5204,-0.0035 6.687794,-0.599178 5.391932,-1.481783 10.061931,-5.120575 12.587839,-10.114317 0.670754,-1.326086 1.146477,-2.70647 1.556465,-4.129709 0.194532,-0.675311 0.220488,-1.458291 -0.539223,-1.79465 -0.902601,-0.39962 -1.635095,0.333087 -2.305013,0.828785 -1.275307,0.943652 -2.723532,1.640002 -4.227916,2.138497 -4.319665,1.431378 -9.420085,0.589923 -13.068105,-2.118964 -5.068667,-3.763808 -7.308162,-10.220031 -5.479387,-16.260784 0.370015,-1.222225 0.910952,-2.362021 1.591577,-3.441424 0.342341,-0.54292 0.842689,-1.026224 1.11665,-1.605998 0.475911,-1.007156 -0.495782,-2.013131 -1.53363,-1.795828 m -2.690491,3.860682 c -1.103893,2.830697 -1.818727,5.57186 -1.607416,8.641797 0.520517,7.562064 6.371642,14.149912 13.829938,15.64325 2.652899,0.53118 5.457007,0.469592 8.071478,-0.252085 1.099568,-0.303517 2.129656,-0.906929 3.22859,-1.166616 -0.597416,1.878171 -2.404302,3.781543 -3.843559,5.06011 C 51.53546,64.53431 44.175481,65.94739 37.951094,63.20955 36.284562,62.476512 34.69301,61.496325 33.338823,60.279915 27.025748,54.609136 25.797648,45.366206 30.18734,38.191309 c 1.510772,-2.46934 3.971109,-4.91647 6.687558,-6.04161 z"
       id="path2" /></g></svg>
